<svg width="37" height="37" viewBox="0 0 37 37" fill="none" xmlns="http://www.w3.org/2000/svg">
<rect width="36.7" height="37" rx="4" fill="#006C49"/>
<path d="M18 16V13H15V11H18V8H20V11H23V13H20V16H18ZM14 29C13.45 29 12.9792 28.8042 12.5875 28.4125C12.1958 28.0208 12 27.55 12 27C12 26.45 12.1958 25.9792 12.5875 25.5875C12.9792 25.1958 13.45 25 14 25C14.55 25 15.0208 25.1958 15.4125 25.5875C15.8042 25.9792 16 26.45 16 27C16 27.55 15.8042 28.0208 15.4125 28.4125C15.0208 28.8042 14.55 29 14 29ZM24 29C23.45 29 22.9792 28.8042 22.5875 28.4125C22.1958 28.0208 22 27.55 22 27C22 26.45 22.1958 25.9792 22.5875 25.5875C22.9792 25.1958 23.45 25 24 25C24.55 25 25.0208 25.1958 25.4125 25.5875C25.8042 25.9792 26 26.45 26 27C26 27.55 25.8042 28.0208 25.4125 28.4125C25.0208 28.8042 24.55 29 24 29ZM8 11V9H11.275L15.525 18H22.525L26.425 11H28.7L24.3 18.95C24.1167 19.2833 23.8708 19.5417 23.5625 19.725C23.2542 19.9083 22.9167 20 22.55 20H15.1L14 22H26V24H14C13.25 24 12.6792 23.675 12.2875 23.025C11.8958 22.375 11.8833 21.7167 12.25 21.05L13.6 18.6L10 11H8Z" fill="white"/>
</svg>
