<svg width="20" height="18" viewBox="0 0 20 18" fill="none" xmlns="http://www.w3.org/2000/svg">
<path d="M18.958 8.0124V15.9253C18.958 16.4727 18.763 16.9413 18.3732 17.3312C17.9834 17.721 17.5147 17.9159 16.9673 17.9159H3.03271C2.48527 17.9159 2.01664 17.721 1.6268 17.3312C1.23697 16.9413 1.04205 16.4727 1.04205 15.9253V8.0124C0.660506 7.66403 0.366054 7.21613 0.158694 6.6687C-0.0486661 6.12127 -0.0528134 5.52407 0.146252 4.87711L1.19135 1.49299C1.32406 1.06168 1.56045 0.705024 1.90052 0.423015C2.24059 0.141005 2.63457 0 3.08247 0H16.9175C17.3654 0 17.7553 0.136858 18.0871 0.410573C18.4188 0.684288 18.6594 1.0451 18.8087 1.49299L19.8538 4.87711C20.0528 5.52407 20.0487 6.11298 19.8413 6.64382C19.634 7.17466 19.3395 7.63085 18.958 8.0124ZM12.1897 6.9673C12.6376 6.9673 12.9777 6.81385 13.2099 6.50696C13.4422 6.20007 13.5334 5.85585 13.4837 5.47431L12.9362 1.99066H10.9953V5.67337C10.9953 6.02174 11.1115 6.32448 11.3437 6.58161C11.5759 6.83874 11.858 6.9673 12.1897 6.9673ZM7.71075 6.9673C8.09229 6.9673 8.40333 6.83874 8.64387 6.58161C8.88441 6.32448 9.00468 6.02174 9.00468 5.67337V1.99066H7.06379L6.51636 5.47431C6.45 5.87244 6.53709 6.2208 6.77763 6.5194C7.01817 6.818 7.32921 6.9673 7.71075 6.9673ZM3.28154 6.9673C3.58014 6.9673 3.84141 6.85947 4.06536 6.64382C4.28931 6.42816 4.42617 6.15445 4.47593 5.82267L5.02336 1.99066H3.08247L2.08714 5.32501C1.98761 5.65678 2.04152 6.01344 2.24888 6.39499C2.45624 6.77653 2.80046 6.9673 3.28154 6.9673ZM16.7185 6.9673C17.1995 6.9673 17.5479 6.77653 17.7636 6.39499C17.9792 6.01344 18.029 5.65678 17.9129 5.32501L16.8678 1.99066H14.9766L15.5241 5.82267C15.5738 6.15445 15.7107 6.42816 15.9347 6.64382C16.1586 6.85947 16.4199 6.9673 16.7185 6.9673ZM3.03271 15.9253H16.9673V8.90819C16.8844 8.94137 16.8304 8.95796 16.8056 8.95796C16.7807 8.95796 16.7517 8.95796 16.7185 8.95796C16.2706 8.95796 15.8766 8.88331 15.5365 8.73401C15.1965 8.58471 14.8605 8.34417 14.5288 8.0124C14.2302 8.31099 13.8901 8.54324 13.5085 8.70913C13.127 8.87501 12.7206 8.95796 12.2893 8.95796C11.8414 8.95796 11.4225 8.87501 11.0327 8.70913C10.6428 8.54324 10.2986 8.31099 10 8.0124C9.718 8.31099 9.39037 8.54324 9.01712 8.70913C8.64387 8.87501 8.24159 8.95796 7.81028 8.95796C7.32921 8.95796 6.89375 8.87501 6.50391 8.70913C6.11408 8.54324 5.76986 8.31099 5.47126 8.0124C5.1229 8.36076 4.77868 8.60545 4.43861 8.74645C4.09854 8.88746 3.71285 8.95796 3.28154 8.95796C3.24836 8.95796 3.21104 8.95796 3.16956 8.95796C3.12809 8.95796 3.08247 8.94137 3.03271 8.90819V15.9253ZM16.9673 15.9253H3.03271C3.08247 15.9253 3.12809 15.9253 3.16956 15.9253C3.21104 15.9253 3.24836 15.9253 3.28154 15.9253C3.71285 15.9253 4.09854 15.9253 4.43861 15.9253C4.77868 15.9253 5.1229 15.9253 5.47126 15.9253C5.62056 15.9253 5.7823 15.9253 5.95648 15.9253C6.13067 15.9253 6.31729 15.9253 6.51636 15.9253C6.71542 15.9253 6.92278 15.9253 7.13844 15.9253C7.35409 15.9253 7.57804 15.9253 7.81028 15.9253C8.02594 15.9253 8.2333 15.9253 8.43236 15.9253C8.63143 15.9253 8.82635 15.9253 9.01712 15.9253C9.20789 15.9253 9.38622 15.9253 9.55211 15.9253C9.718 15.9253 9.8673 15.9253 10 15.9253C10.2986 15.9253 10.6428 15.9253 11.0327 15.9253C11.4225 15.9253 11.8414 15.9253 12.2893 15.9253C12.5049 15.9253 12.7123 15.9253 12.9113 15.9253C13.1104 15.9253 13.3053 15.9253 13.4961 15.9253C13.6869 15.9253 13.8693 15.9253 14.0435 15.9253C14.2177 15.9253 14.3795 15.9253 14.5288 15.9253C14.8605 15.9253 15.1965 15.9253 15.5365 15.9253C15.8766 15.9253 16.2706 15.9253 16.7185 15.9253C16.7517 15.9253 16.7807 15.9253 16.8056 15.9253C16.8304 15.9253 16.8844 15.9253 16.9673 15.9253Z" fill="white"/>
</svg>
