<svg width="16" height="16" viewBox="0 0 16 16" fill="none" xmlns="http://www.w3.org/2000/svg">
<path d="M7.99999 7.99999C6.89999 7.99999 5.95833 7.60833 5.175 6.82499C4.39166 6.04166 4 5.1 4 4C4 2.9 4.39166 1.95833 5.175 1.175C5.95833 0.391666 6.89999 0 7.99999 0C9.09999 0 10.0417 0.391666 10.825 1.175C11.6083 1.95833 12 2.9 12 4C12 5.1 11.6083 6.04166 10.825 6.82499C10.0417 7.60833 9.09999 7.99999 7.99999 7.99999ZM0 16V13.2C0 12.6333 0.145833 12.1125 0.4375 11.6375C0.729166 11.1625 1.11667 10.8 1.6 10.55C2.63333 10.0333 3.68333 9.64583 4.75 9.38749C5.81666 9.12916 6.89999 8.99999 7.99999 8.99999C9.09999 8.99999 10.1833 9.12916 11.25 9.38749C12.3167 9.64583 13.3667 10.0333 14.4 10.55C14.8833 10.8 15.2708 11.1625 15.5625 11.6375C15.8542 12.1125 16 12.6333 16 13.2V16H0ZM2 14H14V13.2C14 13.0167 13.9542 12.85 13.8625 12.7C13.7708 12.55 13.65 12.4333 13.5 12.35C12.6 11.9 11.6917 11.5625 10.775 11.3375C9.85832 11.1125 8.93333 11 7.99999 11C7.06666 11 6.14166 11.1125 5.225 11.3375C4.30833 11.5625 3.4 11.9 2.5 12.35C2.35 12.4333 2.22916 12.55 2.1375 12.7C2.04583 12.85 2 13.0167 2 13.2V14ZM7.99999 6C8.54999 6 9.02083 5.80416 9.41249 5.4125C9.80416 5.02083 9.99999 4.55 9.99999 4C9.99999 3.45 9.80416 2.97916 9.41249 2.5875C9.02083 2.19583 8.54999 2 7.99999 2C7.44999 2 6.97916 2.19583 6.58749 2.5875C6.19583 2.97916 6 3.45 6 4C6 4.55 6.19583 5.02083 6.58749 5.4125C6.97916 5.80416 7.44999 6 7.99999 6Z" fill="#45464D"/>
</svg>
