<svg width="18" height="19" viewBox="0 0 18 19" fill="none" xmlns="http://www.w3.org/2000/svg">
<path d="M2.85 19C2.05833 19 1.38542 18.7229 0.83125 18.1687C0.277083 17.6146 0 16.9417 0 16.15V13.3H2.85V0L4.275 1.425L5.7 0L7.125 1.425L8.55 0L9.975 1.425L11.4 0L12.825 1.425L14.25 0L15.675 1.425L17.1 0V16.15C17.1 16.9417 16.8229 17.6146 16.2687 18.1687C15.7146 18.7229 15.0417 19 14.25 19H2.85ZM14.25 17.1C14.5192 17.1 14.7448 17.009 14.9269 16.8269C15.109 16.6448 15.2 16.4192 15.2 16.15V2.85H4.75V13.3H13.3V16.15C13.3 16.4192 13.391 16.6448 13.5731 16.8269C13.7552 17.009 13.9808 17.1 14.25 17.1ZM5.7 6.65V4.75H11.4V6.65H5.7ZM5.7 9.5V7.6H11.4V9.5H5.7ZM13.3 6.65C13.0308 6.65 12.8052 6.55896 12.6231 6.37688C12.441 6.19479 12.35 5.96917 12.35 5.7C12.35 5.43083 12.441 5.20521 12.6231 5.02312C12.8052 4.84104 13.0308 4.75 13.3 4.75C13.5692 4.75 13.7948 4.84104 13.9769 5.02312C14.159 5.20521 14.25 5.43083 14.25 5.7C14.25 5.96917 14.159 6.19479 13.9769 6.37688C13.7948 6.55896 13.5692 6.65 13.3 6.65ZM13.3 9.5C13.0308 9.5 12.8052 9.40896 12.6231 9.22687C12.441 9.04479 12.35 8.81917 12.35 8.55C12.35 8.28083 12.441 8.05521 12.6231 7.87313C12.8052 7.69104 13.0308 7.6 13.3 7.6C13.5692 7.6 13.7948 7.69104 13.9769 7.87313C14.159 8.05521 14.25 8.28083 14.25 8.55C14.25 8.81917 14.159 9.04479 13.9769 9.22687C13.7948 9.40896 13.5692 9.5 13.3 9.5ZM2.85 17.1H11.4V15.2H1.9V16.15C1.9 16.4192 1.99104 16.6448 2.17312 16.8269C2.35521 17.009 2.58083 17.1 2.85 17.1ZM1.9 17.1C1.9 17.1 1.9 17.009 1.9 16.8269C1.9 16.6448 1.9 16.4192 1.9 16.15V15.2V17.1Z" fill="#45464D"/>
</svg>
